{
  "asset": {
    "version": "2.0",
    "generator": "THREE.GLTFExporter"
  },
  "scenes": [
    {
      "nodes": [
        0
      ]
    }
  ],
  "scene": 0,
  "nodes": [
    {
      "children": [
        12
      ],
      "matrix": [
        0.01,
        0,
        0,
        0,
        0,
        0.01,
        0,
        0,
        0,
        0,
        0.01,
        0,
        0,
        0,
        0,
        1
      ]
    },
    {
      "matrix": [
        136.79340429327593,
        -18.886315020845267,
        0.0728023221867098,
        0,
        0.018983207486469464,
        -0.3948112845440222,
        -138.09048349281693,
        0,
        22.65764575617381,
        164.10732115189631,
        -0.46608068744913544,
        0,
        0.00965157151222229,
        -0.0024337060749530792,
        1.0111221075057983,
        1
      ],
      "name": "Cube019",
      "mesh": 1
    },
    {
      "matrix": [
        0.41937861323249276,
        -0.08930785086688382,
        0.05650978985816096,
        0,
        0.061640625460654075,
        0.01885397026043347,
        -0.4276595705074104,
        0,
        0.08584684265028032,
        0.42274842595613116,
        0.031010972839149362,
        0,
        0,
        0,
        0,
        1
      ],
      "name": "BezierCircle012",
      "mesh": 0,
      "children": [
        1
      ]
    },
    {
      "matrix": [
        1,
        0,
        -6.617444900424222e-24,
        0,
        0,
        1,
        0,
        0,
        6.617444900424222e-24,
        0,
        1,
        0,
        2.8449465006019636e-16,
        1.1920928955078125e-7,
        1.1920928955078125e-7,
        1
      ],
      "name": "Bone"
    },
    {
      "matrix": [
        0.016743965446949,
        0,
        0,
        0,
        0,
        -0.015629466129074735,
        0.006006671710073668,
        0,
        0,
        -0.006006671710073668,
        -0.015629466129074735,
        0,
        -0.000257107966972335,
        0.005539379960903868,
        -0.0013808551041496712,
        1.0000000000000002
      ],
      "name": "Armature",
      "children": [
        2,
        3
      ]
    },
    {
      "matrix": [
        1,
        0,
        0,
        0,
        0,
        1,
        0,
        0,
        0,
        0,
        1,
        0,
        -0.00010374646873976406,
        0.07904955004989173,
        -0.003235107401190894,
        1
      ],
      "name": "Group",
      "children": [
        4
      ]
    },
    {
      "matrix": [
        1,
        0,
        0,
        0,
        0,
        1,
        0,
        0,
        0,
        0,
        1,
        0,
        0,
        -0.0007286465112368725,
        0.001169705984274928,
        1
      ],
      "name": "BezierCurve005",
      "mesh": 2
    },
    {
      "matrix": [
        1,
        0,
        0,
        0,
        0,
        0.9405668766597945,
        -0.3396085254089461,
        0,
        0,
        0.3396085254089461,
        0.9405668766597945,
        0,
        6.938893903907228e-18,
        -0.07757476032657898,
        0.0010327521226466785,
        1
      ],
      "name": "Empty",
      "children": [
        5,
        6
      ]
    },
    {
      "matrix": [
        440.5168206030465,
        0,
        0,
        0,
        0,
        414.49122000685736,
        -149.17137048188445,
        0,
        0,
        149.17137048188445,
        414.49122000685736,
        0,
        -5.106164425955448,
        -34.2178317849269,
        37.920901690315766,
        1
      ],
      "name": "Custom Full Colour Lanyard Spline4",
      "children": [
        7
      ]
    },
    {
      "matrix": [
        1,
        0,
        0,
        0,
        0,
        1,
        0,
        0,
        0,
        0,
        1,
        0,
        12.106164425955448,
        108.29722228962615,
        -64.30936386538536,
        1
      ],
      "name": "Group",
      "children": [
        8
      ]
    },
    {
      "matrix": [
        0.9999995018370073,
        -2.710505431213761e-20,
        -0.0009981611779812216,
        0,
        -0.0003432052998380102,
        0.9390291449939724,
        -0.3438373846195485,
        0,
        0.0009373024375258827,
        0.3438375559066943,
        0.9390286772044033,
        0,
        87.8099869034969,
        486.49550965440085,
        1086.2656927478024,
        1
      ],
      "camera": 0
    },
    {
      "matrix": [
        1,
        0,
        0,
        0,
        0,
        1,
        0,
        0,
        0,
        0,
        1,
        0,
        0,
        1,
        0,
        1
      ],
      "name": "Default Ambient Light"
    },
    {
      "name": "Scene 1",
      "children": [
        9,
        10,
        11
      ]
    }
  ],
  "bufferViews": [
    {
      "buffer": 0,
      "byteOffset": 0,
      "byteLength": 15132,
      "target": 34962,
      "byteStride": 12
    },
    {
      "buffer": 0,
      "byteOffset": 15132,
      "byteLength": 15132,
      "target": 34962,
      "byteStride": 12
    },
    {
      "buffer": 0,
      "byteOffset": 30264,
      "byteLength": 10088,
      "target": 34962,
      "byteStride": 8
    },
    {
      "buffer": 0,
      "byteOffset": 40352,
      "byteLength": 13824,
      "target": 34963
    },
    {
      "buffer": 0,
      "byteOffset": 54176,
      "byteLength": 11148,
      "target": 34962,
      "byteStride": 12
    },
    {
      "buffer": 0,
      "byteOffset": 65324,
      "byteLength": 11148,
      "target": 34962,
      "byteStride": 12
    },
    {
      "buffer": 0,
      "byteOffset": 76472,
      "byteLength": 7432,
      "target": 34962,
      "byteStride": 8
    },
    {
      "buffer": 0,
      "byteOffset": 83904,
      "byteLength": 7432,
      "target": 34962,
      "byteStride": 8
    },
    {
      "buffer": 0,
      "byteOffset": 91336,
      "byteLength": 6240,
      "target": 34963
    },
    {
      "buffer": 0,
      "byteOffset": 97576,
      "byteLength": 49236,
      "target": 34962,
      "byteStride": 12
    },
    {
      "buffer": 0,
      "byteOffset": 146812,
      "byteLength": 49236,
      "target": 34962,
      "byteStride": 12
    },
    {
      "buffer": 0,
      "byteOffset": 196048,
      "byteLength": 32824,
      "target": 34962,
      "byteStride": 8
    },
    {
      "buffer": 0,
      "byteOffset": 228872,
      "byteLength": 43776,
      "target": 34963
    }
  ],
  "buffers": [
    {
      "byteLength": 272648,
      "uri": "data:application/octet-stream;base64,"
    }
  ],
  "accessors": [
    {
      "bufferView": 0,
      "componentType": 5126,
      "count": 1261,
      "max": [
        1.2747201919555664,
        0.08201966434717178,
        0.7701081037521362
      ],
      "min": [
        -1.2598223686218262,
        -0.07730880379676819,
        -0.48853322863578796
      ],
      "type": "VEC3"
    },
    {
      "bufferView": 1,
      "componentType": 5126,
      "count": 1261,
      "max": [
        0.9999667406082153,
        1,
        1
      ],
      "min": [
        -0.9999629259109497,
        -1,
        -1
      ],
      "type": "VEC3"
    },
    {
      "bufferView": 2,
      "componentType": 5126,
      "count": 1261,
      "max": [
        1,
        1
      ],
      "min": [
        0,
        0
      ],
      "type": "VEC2"
    },
    {
      "bufferView": 3,
      "componentType": 5123,
      "count": 6912,
      "max": [
        1260
      ],
      "min": [
        0
      ],
      "type": "SCALAR"
    },
    {
      "bufferView": 4,
      "componentType": 5126,
      "count": 929,
      "max": [
        0.003307601436972618,
        0.0034863888286054134,
        0.001189579488709569
      ],
      "min": [
        -0.002959364792332053,
        -0.009144453331828117,
        -0.0011895797215402126
      ],
      "type": "VEC3"
    },
    {
      "bufferView": 5,
      "componentType": 5126,
      "count": 929,
      "max": [
        0.9998078942298889,
        1,
        1
      ],
      "min": [
        -0.9978592991828918,
        -0.9996731877326965,
        -0.9999717473983765
      ],
      "type": "VEC3"
    },
    {
      "bufferView": 6,
      "componentType": 5126,
      "count": 929,
      "max": [
        0.875,
        1.0090467929840088
      ],
      "min": [
        0.1770833134651184,
        -0.002987504005432129
      ],
      "type": "VEC2"
    },
    {
      "bufferView": 7,
      "componentType": 5126,
      "count": 929,
      "max": [
        0.5030873417854309,
        0.5082225203514099
      ],
      "min": [
        0.49667587876319885,
        0.49474698305130005
      ],
      "type": "VEC2"
    },
    {
      "bufferView": 8,
      "componentType": 5123,
      "count": 3120,
      "max": [
        928
      ],
      "min": [
        0
      ],
      "type": "SCALAR"
    },
    {
      "bufferView": 9,
      "componentType": 5126,
      "count": 4103,
      "max": [
        0.08500541746616364,
        0.20817312598228455,
        0.02639020048081875
      ],
      "min": [
        -0.061822809278964996,
        0.08529968559741974,
        -0.04256727173924446
      ],
      "type": "VEC3"
    },
    {
      "bufferView": 10,
      "componentType": 5126,
      "count": 4103,
      "max": [
        0.99930340051651,
        0.9985463619232178,
        0.9999810457229614
      ],
      "min": [
        -0.99873286485672,
        -0.9974030256271362,
        -0.9996897578239441
      ],
      "type": "VEC3"
    },
    {
      "bufferView": 11,
      "componentType": 5126,
      "count": 4103,
      "max": [
        0.9998466968536377,
        1.2282196283340454
      ],
      "min": [
        -0.010141167789697647,
        -0.10055112838745117
      ],
      "type": "VEC2"
    },
    {
      "bufferView": 12,
      "componentType": 5123,
      "count": 21888,
      "max": [
        4102
      ],
      "min": [
        0
      ],
      "type": "SCALAR"
    }
  ],
  "meshes": [
    {
      "primitives": [
        {
          "mode": 4,
          "attributes": {
            "POSITION": 0,
            "NORMAL": 1,
            "TEXCOORD_0": 2
          },
          "extras": {
            "parameters": {
              "width": 2.5345425605773926,
              "height": 0.15932846814393997,
              "depth": 1.2586413323879242,
              "subdivisions": 0
            },
            "type": "NonParametricGeometry"
          },
          "indices": 3
        }
      ]
    },
    {
      "primitives": [
        {
          "mode": 4,
          "attributes": {
            "POSITION": 4,
            "NORMAL": 5,
            "TEXCOORD_0": 6,
            "TEXCOORD_1": 7
          },
          "extras": {
            "parameters": {
              "width": 0.006266966229304671,
              "height": 0.01263084216043353,
              "depth": 0.0023791592102497816,
              "subdivisions": 0
            },
            "type": "NonParametricGeometry"
          },
          "indices": 8
        }
      ]
    },
    {
      "primitives": [
        {
          "mode": 4,
          "attributes": {
            "POSITION": 9,
            "NORMAL": 10,
            "TEXCOORD_0": 11
          },
          "extras": {
            "parameters": {
              "width": 0.14682822674512863,
              "height": 0.12287344038486481,
              "depth": 0.06895747222006321,
              "subdivisions": 0
            },
            "type": "NonParametricGeometry"
          },
          "indices": 12
        }
      ]
    }
  ],
  "cameras": [
    {
      "type": "orthographic",
      "orthographic": {
        "xmag": 1.9903782386304298,
        "ymag": 0.9064656273428878,
        "zfar": 100000,
        "znear": 0
      }
    }
  ]
}